<?xml version="1.0" standalone="no"?>
<!DOCTYPE svg PUBLIC "-//W3C//DTD SVG 20010904//EN"
 "http://www.w3.org/TR/2001/REC-SVG-20010904/DTD/svg10.dtd">
<svg version="1.0" xmlns="http://www.w3.org/2000/svg"
 width="1024.000000pt" height="1024.000000pt" viewBox="0 0 1024.000000 1024.000000"
 preserveAspectRatio="xMidYMid meet">

<g transform="translate(0.000000,1024.000000) scale(0.100000,-0.100000)"
fill="#000000" stroke="none">
<path d="M5030 8374 c-174 -21 -331 -66 -444 -128 -350 -191 -511 -280 -681
-376 -110 -62 -301 -169 -425 -237 -124 -69 -252 -145 -286 -169 -137 -97
-230 -236 -259 -387 -22 -118 -22 -2438 0 -2513 20 -69 68 -137 125 -179 99
-72 -76 -67 2050 -68 l1915 -2 70 33 c86 41 155 111 187 190 l23 57 -1 1220
c-1 1107 -3 1226 -18 1285 -35 136 -109 250 -218 333 -35 27 -220 136 -413
244 -443 246 -925 513 -1033 570 -93 50 -221 97 -308 112 -70 12 -235 21 -284
15z m281 -159 c188 -33 339 -117 390 -217 18 -35 19 -63 19 -444 0 -453 0
-453 -69 -500 l-36 -24 -506 0 -506 0 -34 23 c-69 46 -69 45 -69 500 0 460 -2
447 79 520 63 57 191 114 316 142 83 18 313 18 416 0z m-1011 -335 c11 -11 22
-30 25 -42 3 -13 5 -179 3 -370 -3 -334 -4 -348 -24 -375 -12 -15 -36 -37 -55
-48 -32 -19 -55 -20 -494 -23 -253 -2 -488 0 -523 3 -190 20 -156 188 70 348
81 57 772 447 893 503 61 29 79 30 105 4z m1905 -97 c187 -104 399 -223 625
-352 172 -98 291 -223 290 -308 -1 -35 -16 -55 -57 -76 -29 -15 -88 -17 -549
-17 l-517 0 -34 26 c-64 48 -67 63 -68 324 -1 129 1 288 4 353 6 115 7 120 35
144 21 18 35 23 55 18 14 -4 111 -54 216 -112z m-2011 -913 c48 -11 84 -36
114 -80 l22 -33 0 -454 0 -453 -26 -40 c-15 -23 -44 -48 -68 -60 -41 -19 -60
-20 -542 -20 -498 0 -500 0 -544 23 -25 12 -55 37 -67 56 l-23 34 0 459 c0
488 0 488 48 531 49 44 73 46 572 46 261 0 493 -4 514 -9z m1436 -12 c25 -13
55 -38 67 -57 l23 -34 0 -462 0 -462 -22 -33 c-13 -18 -36 -43 -51 -54 -28
-21 -37 -21 -537 -21 -500 0 -509 0 -537 21 -15 11 -38 36 -50 54 l-23 33 0
454 c0 486 1 493 50 538 46 42 74 44 565 45 469 0 471 0 515 -22z m1426 3 c23
-10 52 -34 65 -52 l24 -34 3 -463 c3 -456 2 -464 -18 -498 -12 -18 -36 -44
-53 -56 l-32 -23 -500 -3 c-335 -2 -512 0 -537 8 -44 13 -94 67 -107 118 -7
24 -10 196 -9 454 1 442 3 465 50 515 48 52 46 52 578 52 462 1 498 -1 536
-18z m-2804 -1299 c21 -13 45 -40 57 -66 20 -41 21 -58 21 -480 0 -362 -2
-442 -14 -465 -25 -47 -81 -89 -128 -96 -24 -3 -257 -5 -520 -3 l-476 3 -43
30 c-23 17 -53 50 -66 74 l-23 44 0 430 c0 458 1 468 50 512 48 43 70 45 600
42 l505 -2 37 -23z m1383 5 c22 -12 50 -38 62 -56 l23 -34 0 -457 0 -457 -23
-33 c-12 -19 -38 -43 -57 -54 -34 -20 -49 -21 -537 -21 -493 0 -502 0 -530 21
-15 11 -38 36 -51 54 l-23 34 3 462 c3 451 4 463 24 491 11 15 36 38 54 51
l33 22 491 0 c491 0 491 0 531 -23z m1435 -4 c20 -12 46 -40 58 -62 23 -40 23
-40 20 -484 l-3 -445 -31 -39 c-66 -81 -39 -78 -577 -81 -495 -3 -531 0 -581
39 -62 49 -61 41 -60 529 0 386 3 449 16 475 21 40 59 74 94 85 16 5 254 8
529 7 496 -2 500 -2 535 -24z"/>
<path d="M4326 3684 c-14 -14 -16 -92 -16 -714 l0 -699 22 -15 c26 -19 187
-23 219 -6 18 10 19 24 19 310 0 170 5 320 10 348 26 120 153 190 271 151 36
-12 83 -51 102 -84 8 -14 14 -130 17 -368 4 -294 7 -349 20 -357 22 -14 203
-13 218 2 15 15 17 701 2 766 -27 116 -100 206 -198 242 -48 18 -72 21 -147
17 -106 -5 -156 -24 -238 -91 l-57 -46 0 264 c0 227 -2 267 -16 280 -12 12
-38 16 -114 16 -76 0 -102 -4 -114 -16z"/>
<path d="M8263 3693 c-17 -6 -19 -1205 -2 -1283 14 -67 64 -139 114 -164 53
-27 164 -28 217 -2 43 21 52 48 40 116 -7 44 -9 45 -50 51 -82 11 -77 -36 -80
651 -2 424 -6 616 -14 625 -7 9 -39 13 -112 12 -55 0 -107 -3 -113 -6z"/>
<path d="M8770 3679 c-8 -14 -10 -203 -8 -642 l3 -622 33 -68 c26 -52 42 -72
75 -92 76 -44 200 -43 257 3 16 13 24 33 28 70 6 63 -7 82 -57 82 -47 0 -59 9
-71 51 -6 20 -10 265 -10 617 0 383 -4 590 -10 603 -10 17 -22 19 -120 19
-100 0 -110 -2 -120 -21z"/>
<path d="M3001 3662 c-50 -25 -74 -63 -79 -124 -3 -44 0 -59 20 -88 45 -67
125 -87 204 -51 115 52 121 212 10 265 -44 21 -112 20 -155 -2z"/>
<path d="M1000 3625 c-11 -13 5 -86 89 -418 229 -900 239 -935 268 -954 18
-12 48 -14 138 -12 98 4 116 7 128 23 8 10 60 179 116 375 140 486 164 562
172 553 4 -4 17 -43 28 -87 12 -44 62 -213 111 -375 49 -162 98 -328 110 -369
12 -42 32 -84 45 -97 22 -22 32 -24 121 -24 120 0 158 15 172 68 13 49 166
650 253 991 39 151 69 288 67 305 l-3 31 -105 3 c-58 2 -115 0 -127 -3 -28 -7
-31 -19 -93 -310 -28 -132 -76 -349 -106 -482 -30 -133 -54 -245 -54 -248 0
-3 -4 -5 -8 -5 -5 0 -19 42 -32 93 -20 81 -77 280 -181 637 -59 201 -80 260
-99 270 -10 6 -59 10 -109 10 -104 0 -113 -5 -136 -83 -75 -264 -199 -707
-226 -809 -19 -71 -37 -128 -40 -128 -6 0 -31 114 -140 645 -58 285 -84 393
-96 403 -26 19 -247 17 -263 -3z"/>
<path d="M5277 3628 c-15 -12 -15 -18 2 -83 10 -38 53 -196 94 -350 41 -154
107 -404 147 -555 99 -383 98 -378 120 -390 31 -17 242 -13 267 5 26 18 35 42
113 305 34 113 72 239 85 280 24 76 105 357 105 366 0 2 4 4 8 4 4 0 14 -21
20 -47 16 -57 213 -705 249 -816 15 -47 33 -83 46 -92 25 -18 226 -22 257 -5
25 13 38 57 220 740 29 107 76 284 106 394 58 213 60 226 42 244 -17 17 -228
16 -251 0 -11 -9 -28 -67 -51 -173 -99 -451 -198 -865 -207 -865 -3 0 -23 60
-44 133 -68 241 -225 761 -246 814 -24 60 -30 63 -151 63 -104 0 -110 -4 -137
-98 -11 -37 -46 -159 -79 -272 -139 -472 -172 -588 -172 -598 0 -6 -5 -23 -11
-39 -10 -26 -14 -17 -45 107 -32 129 -204 889 -204 902 0 4 -7 14 -16 22 -20
21 -240 23 -267 4z"/>
<path d="M3733 3279 c-218 -20 -348 -140 -345 -321 1 -71 27 -132 76 -181 47
-48 104 -76 246 -122 152 -49 187 -68 208 -111 15 -31 15 -38 2 -61 -54 -94
-207 -103 -378 -22 -45 21 -86 39 -91 39 -17 0 -48 -48 -61 -95 -18 -66 -5
-89 73 -126 161 -75 382 -79 529 -9 136 64 205 212 164 353 -31 107 -109 167
-296 228 -138 45 -174 61 -207 92 -32 29 -31 79 3 106 64 50 156 52 284 6 103
-38 122 -40 141 -18 25 28 52 109 46 136 -17 65 -225 121 -394 106z"/>
<path d="M7455 3269 c-102 -23 -219 -84 -230 -120 -8 -24 38 -127 60 -135 9
-4 48 9 88 27 63 29 84 34 172 37 88 4 107 1 147 -18 25 -12 54 -30 63 -40 24
-27 44 -88 45 -139 l0 -43 -32 6 c-101 21 -161 27 -225 22 -172 -15 -300 -84
-356 -191 -30 -58 -36 -198 -12 -263 24 -62 94 -134 158 -163 45 -21 67 -24
162 -24 122 1 170 15 262 81 54 38 63 41 63 18 0 -24 39 -74 67 -85 44 -16
167 -13 207 6 l37 18 -3 61 c-3 58 -4 61 -30 64 -51 6 -53 13 -59 326 -5 272
-7 295 -28 349 -12 31 -34 71 -49 89 -39 46 -121 95 -189 112 -67 18 -250 20
-318 5z m313 -579 c34 -13 35 -15 32 -70 -6 -113 -113 -210 -234 -211 -84 -1
-140 37 -156 106 -17 76 30 155 108 180 53 17 195 14 250 -5z"/>
<path d="M2960 3250 c-13 -8 -15 -76 -18 -494 -2 -433 -1 -486 13 -500 25 -25
206 -23 228 2 15 17 17 66 17 498 0 360 -3 483 -12 492 -15 15 -206 16 -228 2z"/>
</g>
</svg>
